<svg width="100" height="100" viewBox="0 0 100 100" fill="none" xmlns="http://www.w3.org/2000/svg">
<path fill-rule="evenodd" clip-rule="evenodd" d="M58.3333 45.8367H50V54.1665C50 56.4677 48.1345 58.3332 45.8333 58.3332H37.5C36.755 58.3332 36.0478 58.1411 35.4222 57.7797C34.1376 57.0379 33.3333 55.6745 33.3333 54.1665V29.1665C33.3333 26.8653 35.1988 24.9998 37.5 24.9998H45.8333C48.1345 24.9998 50 26.8653 50 29.1665H58.3333C58.3333 22.2629 52.7369 16.6665 45.8333 16.6665H37.5C30.5964 16.6665 25 22.2629 25 29.1665V54.1665C25 58.6818 27.4177 62.7802 31.2545 64.996C33.1389 66.0843 35.2819 66.6665 37.5 66.6665H45.8333C52.7369 66.6665 58.3333 61.0701 58.3333 54.1665V45.8367ZM37.5 54.1665H45.8333V45.8332C45.8333 43.532 47.6988 41.6665 50 41.6665H58.3333C60.6345 41.6665 62.5 43.532 62.5 45.8332H70.8333C70.8333 38.9296 65.2369 33.3332 58.3333 33.3332H50C43.0964 33.3332 37.5 38.9296 37.5 45.8332V54.1665ZM62.5 54.1533H70.8333V62.4998H62.5V54.1533ZM70.8333 70.8332H62.5C62.5 73.1344 60.6345 74.9998 58.3333 74.9998H50C47.6988 74.9998 45.8333 73.1344 45.8333 70.8332H37.5C37.5 77.7367 43.0964 83.3332 50 83.3332H58.3333C65.2369 83.3332 70.8333 77.7367 70.8333 70.8332Z" fill="black" style="fill:black;fill-opacity:1;"/>
</svg>
